<?xml version="1.0" encoding="UTF-8" standalone="no"?>
<!-- Created with Inkscape (http://www.inkscape.org/) -->

<svg
   width="16"
   height="16"
   viewBox="0 0 16 16"
   version="1.1"
   id="svg1"
   inkscape:version="1.3.2 (091e20ef0f, 2023-11-25, custom)"
   sodipodi:docname="Controller.svg"
   xmlns:inkscape="http://www.inkscape.org/namespaces/inkscape"
   xmlns:sodipodi="http://sodipodi.sourceforge.net/DTD/sodipodi-0.dtd"
   xmlns="http://www.w3.org/2000/svg"
   xmlns:svg="http://www.w3.org/2000/svg">
  <sodipodi:namedview
     id="namedview1"
     pagecolor="#505050"
     bordercolor="#eeeeee"
     borderopacity="1"
     inkscape:showpageshadow="0"
     inkscape:pageopacity="0"
     inkscape:pagecheckerboard="0"
     inkscape:deskcolor="#505050"
     inkscape:document-units="px"
     showgrid="true"
     inkscape:zoom="32"
     inkscape:cx="7.78125"
     inkscape:cy="6.75"
     inkscape:window-width="1904"
     inkscape:window-height="996"
     inkscape:window-x="8"
     inkscape:window-y="40"
     inkscape:window-maximized="0"
     inkscape:current-layer="layer1">
    <inkscape:grid
       id="grid1"
       units="px"
       originx="0"
       originy="0"
       spacingx="1"
       spacingy="1"
       empcolor="#737373"
       empopacity="0.43921569"
       color="#737373"
       opacity="0.14901961"
       empspacing="4"
       dotted="false"
       gridanglex="30"
       gridanglez="30"
       visible="true" />
  </sodipodi:namedview>
  <defs
     id="defs1">
    <inkscape:path-effect
       effect="mirror_symmetry"
       start_point="8,10"
       end_point="8,8"
       center_point="8,9"
       id="path-effect4"
       is_visible="true"
       lpeversion="1.2"
       lpesatellites=""
       mode="free"
       discard_orig_path="false"
       fuse_paths="false"
       oposite_fuse="false"
       split_items="false"
       split_open="false"
       link_styles="false" />
    <filter
       id="selectable_hidder_filter"
       width="1"
       height="1"
       x="0"
       y="0"
       style="color-interpolation-filters:sRGB;"
       inkscape:label="LPE boolean visibility">
      <feComposite
         id="boolops_hidder_primitive"
         result="composite1"
         operator="arithmetic"
         in2="SourceGraphic"
         in="BackgroundImage" />
    </filter>
    <inkscape:path-effect
       effect="bool_op"
       operand-path="#path3"
       id="path-effect3"
       is_visible="true"
       lpeversion="1"
       operation="diff"
       swap-operands="false"
       filltype-this="from-curve"
       filter=""
       filltype-operand="from-curve" />
    <inkscape:path-effect
       effect="mirror_symmetry"
       start_point="8,5"
       end_point="8,14"
       center_point="8,9.5"
       id="path-effect1"
       is_visible="true"
       lpeversion="1.2"
       lpesatellites=""
       mode="free"
       discard_orig_path="false"
       fuse_paths="false"
       oposite_fuse="false"
       split_items="false"
       split_open="false"
       link_styles="false" />
  </defs>
  <g
     inkscape:label="Layer 1"
     inkscape:groupmode="layer"
     id="layer1">
    <path
       id="path1"
       style="fill:#ff7f2a;stroke:none"
       d="M 5 5 C 3.000002 5 2.4059036 6.1169354 2 7 C 1.3657316 8.3798839 1 11.000002 1 13 C 1 14.054092 4 14 4 14 L 6 10 L 8 10 L 10 10 L 12 14 C 12 14 15 14.054092 15 13 C 15 11.000002 14.634268 8.3798839 14 7 C 13.594096 6.1169354 12.999998 5 11 5 C 10.31246 5 10 6 10 6 L 8 6 L 6 6 C 6 6 5.6875403 5 5 5 z M 4 7 C 4.5522842 7 5 7.4477158 5 8 C 5 8.5522842 4.5522842 9 4 9 C 3.4477158 9 3 8.5522842 3 8 C 3 7.4477158 3.4477158 7 4 7 z M 12 7 C 12.552284 7 13 7.4477158 13 8 C 13 8.5522842 12.552284 9 12 9 C 11.447716 9 11 8.5522842 11 8 C 11 7.4477158 11.447716 7 12 7 z "
       transform="translate(0,1)" />
    <rect
       style="fill:#ff7f2a;stroke:none;stroke-width:1.25361"
       id="rect1"
       width="3.1430664"
       height="1.2336607"
       x="6.4284668"
       y="5" />
    <path
       style="fill:none;stroke:#ff7f2a;stroke-width:2;stroke-dasharray:none"
       d="M 8,4.4574743 V 2.8081658 C 8,1.2499135 8.6112409,1.1020568 11.324042,3.5114726 13,5 14,1 14,1"
       id="path2"
       sodipodi:nodetypes="cssc" />
  </g>
</svg>
