<?xml version="1.0" encoding="UTF-8" standalone="no"?>
<!-- Created with Inkscape (http://www.inkscape.org/) -->

<svg
   width="16"
   height="16"
   viewBox="0 0 16 16"
   version="1.1"
   id="svg1"
   inkscape:version="1.3.2 (091e20ef0f, 2023-11-25, custom)"
   sodipodi:docname="Game.svg"
   xmlns:inkscape="http://www.inkscape.org/namespaces/inkscape"
   xmlns:sodipodi="http://sodipodi.sourceforge.net/DTD/sodipodi-0.dtd"
   xmlns="http://www.w3.org/2000/svg"
   xmlns:svg="http://www.w3.org/2000/svg">
  <sodipodi:namedview
     id="namedview1"
     pagecolor="#505050"
     bordercolor="#eeeeee"
     borderopacity="1"
     inkscape:showpageshadow="0"
     inkscape:pageopacity="0"
     inkscape:pagecheckerboard="0"
     inkscape:deskcolor="#505050"
     inkscape:document-units="px"
     showgrid="true"
     inkscape:zoom="45.254834"
     inkscape:cx="7.4135727"
     inkscape:cy="7.2699416"
     inkscape:window-width="1904"
     inkscape:window-height="996"
     inkscape:window-x="8"
     inkscape:window-y="40"
     inkscape:window-maximized="0"
     inkscape:current-layer="layer1">
    <inkscape:grid
       id="grid1"
       units="px"
       originx="0"
       originy="0"
       spacingx="1"
       spacingy="1"
       empcolor="#737373"
       empopacity="0.43921569"
       color="#737373"
       opacity="0.14901961"
       empspacing="4"
       dotted="false"
       gridanglex="30"
       gridanglez="30"
       visible="true" />
  </sodipodi:namedview>
  <defs
     id="defs1" />
  <g
     inkscape:label="Layer 1"
     inkscape:groupmode="layer"
     id="layer1">
    <path
       id="path3"
       style="fill:#ff7f2a;stroke-width:2"
       d="M 8 1.7558594 C 7.4887628 1.7558594 6.9776739 1.9520136 6.5859375 2.34375 L 2.34375 6.5859375 C 1.5602773 7.3694102 1.5602773 8.6305898 2.34375 9.4140625 L 6.5859375 13.65625 C 7.3694102 14.439723 8.6305898 14.439723 9.4140625 13.65625 L 13.65625 9.4140625 C 14.439723 8.6305898 14.439723 7.3694102 13.65625 6.5859375 L 9.4140625 2.34375 C 9.0223261 1.9520136 8.5112372 1.7558594 8 1.7558594 z M 8 3.5839844 C 8.3614992 3.5839844 8.7230006 3.7230006 9 4 L 12 7 C 12.553998 7.5539988 12.553998 8.4460012 12 9 L 9 12 C 8.4460012 12.553998 7.5539988 12.553998 7 12 L 4 9 C 3.4460012 8.4460012 3.4460012 7.5539988 4 7 L 7 4 C 7.2769994 3.7230006 7.6385008 3.5839844 8 3.5839844 z M 8 5.3515625 C 7.7831004 5.3515625 7.5665903 5.4334096 7.4003906 5.5996094 L 5.5996094 7.4003906 C 5.26721 7.73279 5.26721 8.26721 5.5996094 8.5996094 L 7.4003906 10.400391 C 7.73279 10.732789 8.26721 10.732789 8.5996094 10.400391 L 10.400391 8.5996094 C 10.732789 8.26721 10.732789 7.73279 10.400391 7.4003906 L 8.5996094 5.5996094 C 8.4334097 5.4334097 8.2168996 5.3515625 8 5.3515625 z " />
  </g>
</svg>
