<?xml version="1.0" encoding="UTF-8" standalone="no"?>
<!-- Created with Inkscape (http://www.inkscape.org/) -->

<svg
   width="16"
   height="16"
   viewBox="0 0 16 16"
   version="1.1"
   id="svg1"
   inkscape:version="1.3.2 (091e20ef0f, 2023-11-25, custom)"
   sodipodi:docname="GameMode.svg"
   xmlns:inkscape="http://www.inkscape.org/namespaces/inkscape"
   xmlns:sodipodi="http://sodipodi.sourceforge.net/DTD/sodipodi-0.dtd"
   xmlns="http://www.w3.org/2000/svg"
   xmlns:svg="http://www.w3.org/2000/svg">
  <sodipodi:namedview
     id="namedview1"
     pagecolor="#505050"
     bordercolor="#eeeeee"
     borderopacity="1"
     inkscape:showpageshadow="0"
     inkscape:pageopacity="0"
     inkscape:pagecheckerboard="0"
     inkscape:deskcolor="#505050"
     inkscape:document-units="px"
     showgrid="true"
     inkscape:zoom="45.254834"
     inkscape:cx="9.2144853"
     inkscape:cy="9.1260969"
     inkscape:window-width="1904"
     inkscape:window-height="996"
     inkscape:window-x="8"
     inkscape:window-y="40"
     inkscape:window-maximized="0"
     inkscape:current-layer="layer1">
    <inkscape:grid
       id="grid1"
       units="px"
       originx="0"
       originy="0"
       spacingx="1"
       spacingy="1"
       empcolor="#737373"
       empopacity="0.43921569"
       color="#737373"
       opacity="0.14901961"
       empspacing="4"
       dotted="false"
       gridanglex="30"
       gridanglez="30"
       visible="true" />
  </sodipodi:namedview>
  <defs
     id="defs1">
    <inkscape:path-effect
       effect="clone_original"
       linkeditem=""
       id="path-effect8"
       is_visible="true"
       lpeversion="1"
       method="d"
       attributes=""
       css_properties=""
       allow_transforms="true" />
    <inkscape:path-effect
       effect="clone_original"
       linkeditem=""
       id="path-effect7"
       is_visible="true"
       lpeversion="1"
       method="d"
       attributes=""
       css_properties=""
       allow_transforms="true" />
  </defs>
  <g
     inkscape:label="Layer 1"
     inkscape:groupmode="layer"
     id="layer1">
    <path
       id="rect1"
       style="fill:#ff7f2a;stroke-width:2"
       d="M 11,1 C 10.446001,1 10,1.4460005 10,2 V 3 H 9 C 8.4460006,3 8,3.4460006 8,4 v 1 c 0,0.5539994 0.4460006,1 1,1 h 1 v 1 c 0,0.5539994 0.446001,1 1,1 h 1 c 0.553999,0 1,-0.4460006 1,-1 V 6 h 1 c 0.553999,0 1,-0.4460006 1,-1 V 4 C 15,3.4460006 14.553999,3 14,3 H 13 V 2 C 13,1.4460005 12.553999,1 12,1 Z" />
    <rect
       style="fill:#ff7f2a;stroke-width:2"
       id="rect2"
       width="2"
       height="2"
       x="4"
       y="8"
       ry="0.55746299" />
    <rect
       style="fill:#ff7f2a;stroke-width:2"
       id="rect4"
       width="2"
       height="2"
       x="6"
       y="10"
       ry="0.55746299" />
    <rect
       style="fill:#ff7f2a;stroke-width:2"
       id="rect5"
       width="2"
       height="2"
       x="4"
       y="12"
       ry="0.55746299" />
    <rect
       style="fill:#ff7f2a;stroke-width:2"
       id="rect3"
       width="2"
       height="2"
       x="2"
       y="10"
       ry="0.55746299" />
    <rect
       style="fill:#e0e0e0;stroke-width:2;fill-opacity:1"
       id="rect8"
       width="6"
       height="6"
       x="1"
       y="1"
       ry="1.3872818"
       sodipodi:type="rect" />
    <rect
       style="fill:#e0e0e0;stroke-width:2;fill-opacity:1"
       id="rect6"
       width="6"
       height="6"
       x="9"
       y="9"
       ry="1.3872818"
       sodipodi:type="rect" />
  </g>
</svg>
